<svg width="1137" height="320" viewBox="0 0 1137 320" fill="none" xmlns="http://www.w3.org/2000/svg">
<path d="M72 149.4C63.3333 149.4 55.2 148.6 47.6 147C40 145.533 33.2667 143.067 27.4 139.6C21.6667 136.133 17.1333 131.6 13.8 126C10.4667 120.267 8.8 113.267 8.8 105C8.8 104.467 8.8 103.867 8.8 103.2C8.8 102.533 8.86667 102 9 101.6H43.6C43.6 102 43.5333 102.533 43.4 103.2C43.4 103.733 43.4 104.2 43.4 104.6C43.4 108.867 44.4667 112.333 46.6 115C48.8667 117.533 52 119.4 56 120.6C60 121.667 64.6667 122.2 70 122.2C72.9333 122.2 75.6667 122.067 78.2 121.8C80.7333 121.533 83 121.067 85 120.4C87 119.733 88.7333 118.933 90.2 118C91.8 116.933 92.9333 115.733 93.6 114.4C94.4 112.933 94.8 111.267 94.8 109.4C94.8 106.333 93.6 103.8 91.2 101.8C88.9333 99.8 85.8 98.1333 81.8 96.8C77.9333 95.4667 73.5333 94.2 68.6 93C63.6667 91.8 58.5333 90.5333 53.2 89.2C47.8667 87.8667 42.7333 86.2 37.8 84.2C32.8667 82.2 28.4 79.6667 24.4 76.6C20.5333 73.5333 17.4 69.7333 15 65.2C12.7333 60.5333 11.6 54.9333 11.6 48.4C11.6 41.2 13.1333 35 16.2 29.8C19.2667 24.4667 23.4667 20.1333 28.8 16.8C34.2667 13.4667 40.5333 11.0667 47.6 9.59999C54.6667 7.99999 62.2 7.19999 70.2 7.19999C78.0667 7.19999 85.4 7.99999 92.2 9.59999C99.1333 11.2 105.267 13.7333 110.6 17.2C115.933 20.5333 120.067 24.8 123 30C126.067 35.0667 127.667 41.2 127.8 48.4V50.8H93.4V49.4C93.4 46.3333 92.5333 43.6667 90.8 41.4C89.2 39 86.7333 37.1333 83.4 35.8C80.0667 34.3333 75.9333 33.6 71 33.6C66.0667 33.6 61.8667 34.0667 58.4 35C55.0667 35.9333 52.4667 37.2667 50.6 39C48.8667 40.7333 48 42.8 48 45.2C48 48.1333 49.1333 50.5333 51.4 52.4C53.8 54.2667 57 55.8667 61 57.2C65 58.5333 69.4667 59.8 74.4 61C79.3333 62.0667 84.4 63.2667 89.6 64.6C94.9333 65.8 100.067 67.4 105 69.4C109.933 71.2667 114.4 73.7333 118.4 76.8C122.4 79.7333 125.533 83.4 127.8 87.8C130.2 92.2 131.4 97.5333 131.4 103.8C131.4 114.733 128.8 123.533 123.6 130.2C118.533 136.867 111.467 141.733 102.4 144.8C93.4667 147.867 83.3333 149.4 72 149.4ZM206.453 149.4C191.386 149.4 178.453 146.8 167.653 141.6C156.986 136.267 148.786 128.333 143.053 117.8C137.32 107.267 134.453 94.0667 134.453 78.2C134.453 62.3333 137.32 49.2 143.053 38.8C148.786 28.2667 156.986 20.4 167.653 15.2C178.453 9.86666 191.386 7.19999 206.453 7.19999C221.52 7.19999 234.386 9.86666 245.053 15.2C255.853 20.4 264.12 28.2667 269.853 38.8C275.586 49.2 278.453 62.3333 278.453 78.2C278.453 94.0667 275.586 107.267 269.853 117.8C264.12 128.333 255.853 136.267 245.053 141.6C234.386 146.8 221.52 149.4 206.453 149.4ZM206.453 121.4C212.186 121.4 217.253 120.533 221.653 118.8C226.053 117.067 229.72 114.533 232.653 111.2C235.72 107.867 237.986 103.8 239.453 99C240.92 94.2 241.653 88.8 241.653 82.8V74C241.653 67.8667 240.92 62.4 239.453 57.6C237.986 52.8 235.72 48.7333 232.653 45.4C229.72 42.0667 226.053 39.5333 221.653 37.8C217.253 36.0667 212.186 35.2 206.453 35.2C200.586 35.2 195.453 36.0667 191.053 37.8C186.653 39.5333 182.986 42.0667 180.053 45.4C177.12 48.7333 174.92 52.8 173.453 57.6C171.986 62.4 171.253 67.8667 171.253 74V82.8C171.253 88.8 171.986 94.2 173.453 99C174.92 103.8 177.12 107.867 180.053 111.2C182.986 114.533 186.653 117.067 191.053 118.8C195.453 120.533 200.586 121.4 206.453 121.4ZM288.367 147V9.59999H320.167L370.167 73.4C371.101 74.4667 372.301 76 373.767 78C375.367 80 376.901 82.0667 378.367 84.2C379.834 86.2 380.901 87.8 381.567 89L382.567 88.8C382.567 85.8667 382.567 83.0667 382.567 80.4C382.567 77.6 382.567 75.2667 382.567 73.4V9.59999H415.767V147H384.167L331.167 79.8C329.434 77.6667 327.767 75.4667 326.167 73.2C324.701 70.9333 323.501 69.0667 322.567 67.6L321.567 67.8C321.567 69.9333 321.567 72.1333 321.567 74.4C321.567 76.5333 321.567 78.3333 321.567 79.8V147H288.367ZM497.789 149.4C482.722 149.4 469.789 146.8 458.989 141.6C448.322 136.267 440.122 128.333 434.389 117.8C428.656 107.267 425.789 94.0667 425.789 78.2C425.789 62.3333 428.656 49.2 434.389 38.8C440.122 28.2667 448.322 20.4 458.989 15.2C469.789 9.86666 482.722 7.19999 497.789 7.19999C512.856 7.19999 525.722 9.86666 536.389 15.2C547.189 20.4 555.456 28.2667 561.189 38.8C566.922 49.2 569.789 62.3333 569.789 78.2C569.789 94.0667 566.922 107.267 561.189 117.8C555.456 128.333 547.189 136.267 536.389 141.6C525.722 146.8 512.856 149.4 497.789 149.4ZM497.789 121.4C503.522 121.4 508.589 120.533 512.989 118.8C517.389 117.067 521.056 114.533 523.989 111.2C527.056 107.867 529.322 103.8 530.789 99C532.256 94.2 532.989 88.8 532.989 82.8V74C532.989 67.8667 532.256 62.4 530.789 57.6C529.322 52.8 527.056 48.7333 523.989 45.4C521.056 42.0667 517.389 39.5333 512.989 37.8C508.589 36.0667 503.522 35.2 497.789 35.2C491.922 35.2 486.789 36.0667 482.389 37.8C477.989 39.5333 474.322 42.0667 471.389 45.4C468.456 48.7333 466.256 52.8 464.789 57.6C463.322 62.4 462.589 67.8667 462.589 74V82.8C462.589 88.8 463.322 94.2 464.789 99C466.256 103.8 468.456 107.867 471.389 111.2C474.322 114.533 477.989 117.067 482.389 118.8C486.789 120.533 491.922 121.4 497.789 121.4ZM636.703 149.4C628.036 149.4 619.903 148.6 612.303 147C604.703 145.533 597.97 143.067 592.103 139.6C586.37 136.133 581.836 131.6 578.503 126C575.17 120.267 573.503 113.267 573.503 105C573.503 104.467 573.503 103.867 573.503 103.2C573.503 102.533 573.57 102 573.703 101.6H608.303C608.303 102 608.236 102.533 608.103 103.2C608.103 103.733 608.103 104.2 608.103 104.6C608.103 108.867 609.17 112.333 611.303 115C613.57 117.533 616.703 119.4 620.703 120.6C624.703 121.667 629.37 122.2 634.703 122.2C637.636 122.2 640.37 122.067 642.903 121.8C645.436 121.533 647.703 121.067 649.703 120.4C651.703 119.733 653.436 118.933 654.903 118C656.503 116.933 657.636 115.733 658.303 114.4C659.103 112.933 659.503 111.267 659.503 109.4C659.503 106.333 658.303 103.8 655.903 101.8C653.636 99.8 650.503 98.1333 646.503 96.8C642.636 95.4667 638.236 94.2 633.303 93C628.37 91.8 623.236 90.5333 617.903 89.2C612.57 87.8667 607.436 86.2 602.503 84.2C597.57 82.2 593.103 79.6667 589.103 76.6C585.236 73.5333 582.103 69.7333 579.703 65.2C577.436 60.5333 576.303 54.9333 576.303 48.4C576.303 41.2 577.836 35 580.903 29.8C583.97 24.4667 588.17 20.1333 593.503 16.8C598.97 13.4667 605.236 11.0667 612.303 9.59999C619.37 7.99999 626.903 7.19999 634.903 7.19999C642.77 7.19999 650.103 7.99999 656.903 9.59999C663.836 11.2 669.97 13.7333 675.303 17.2C680.636 20.5333 684.77 24.8 687.703 30C690.77 35.0667 692.37 41.2 692.503 48.4V50.8H658.103V49.4C658.103 46.3333 657.236 43.6667 655.503 41.4C653.903 39 651.436 37.1333 648.103 35.8C644.77 34.3333 640.636 33.6 635.703 33.6C630.77 33.6 626.57 34.0667 623.103 35C619.77 35.9333 617.17 37.2667 615.303 39C613.57 40.7333 612.703 42.8 612.703 45.2C612.703 48.1333 613.836 50.5333 616.103 52.4C618.503 54.2667 621.703 55.8667 625.703 57.2C629.703 58.5333 634.17 59.8 639.103 61C644.036 62.0667 649.103 63.2667 654.303 64.6C659.636 65.8 664.77 67.4 669.703 69.4C674.636 71.2667 679.103 73.7333 683.103 76.8C687.103 79.7333 690.236 83.4 692.503 87.8C694.903 92.2 696.103 97.5333 696.103 103.8C696.103 114.733 693.503 123.533 688.303 130.2C683.236 136.867 676.17 141.733 667.103 144.8C658.17 147.867 648.036 149.4 636.703 149.4ZM768.356 149.4C755.156 149.4 743.756 147.333 734.156 143.2C724.69 139.067 717.423 132.867 712.356 124.6C707.29 116.333 704.756 106.067 704.756 93.8V9.59999H740.756V93C740.756 101.8 743.09 108.733 747.756 113.8C752.423 118.867 759.29 121.4 768.356 121.4C777.423 121.4 784.356 118.867 789.156 113.8C793.956 108.733 796.356 101.8 796.356 93V9.59999H832.156V93.8C832.156 106.067 829.623 116.333 824.556 124.6C819.49 132.867 812.223 139.067 802.756 143.2C793.29 147.333 781.823 149.4 768.356 149.4ZM847.797 147V9.59999H883.597V70.6L937.997 9.59999H982.397L931.197 65.8L983.397 147H940.997L906.397 90.2L883.597 111.2V147H847.797ZM988.103 147V9.59999H1101.5V37.6H1023.9V63.4H1091.7V90.8H1023.9V119H1102.9V147H988.103ZM1.6 307L53.2 169.6H96.2L147.8 307H109.6L101.4 283.2H46.6L38.4 307H1.6ZM55.2 256.4H92.6L82.8 227.4C82.2667 225.933 81.6 224.133 80.8 222C80.1333 219.733 79.4 217.4 78.6 215C77.9333 212.467 77.2667 209.933 76.6 207.4C75.9333 204.867 75.2667 202.667 74.6 200.8H73.2C72.6667 203.333 71.8667 206.2 70.8 209.4C69.8667 212.6 68.8667 215.8 67.8 219C66.8667 222.2 66 225 65.2 227.4L55.2 256.4ZM209.303 309.4C187.17 309.4 170.303 303.533 158.703 291.8C147.236 280.067 141.503 262.2 141.503 238.2C141.503 222.333 144.303 209.2 149.903 198.8C155.636 188.267 163.903 180.4 174.703 175.2C185.636 169.867 198.77 167.2 214.103 167.2C223.303 167.2 231.97 168.267 240.103 170.4C248.236 172.533 255.436 175.733 261.703 180C267.97 184.133 272.836 189.4 276.303 195.8C279.77 202.067 281.503 209.467 281.503 218H246.303C246.303 214.4 245.503 211.2 243.903 208.4C242.303 205.467 240.036 203.067 237.103 201.2C234.303 199.2 231.036 197.733 227.303 196.8C223.57 195.733 219.636 195.2 215.503 195.2C209.37 195.2 203.903 196 199.103 197.6C194.436 199.2 190.57 201.667 187.503 205C184.436 208.333 182.103 212.4 180.503 217.2C179.036 222 178.303 227.6 178.303 234V242.8C178.303 251.333 179.636 258.467 182.303 264.2C184.97 269.933 188.97 274.267 194.303 277.2C199.77 280 206.436 281.4 214.303 281.4C220.436 281.4 225.903 280.467 230.703 278.6C235.636 276.733 239.503 274.067 242.303 270.6C245.236 267 246.703 262.733 246.703 257.8V256.8H209.703V231.6H281.503V307H260.703L257.303 292.6C253.17 296.333 248.703 299.467 243.903 302C239.236 304.533 234.036 306.4 228.303 307.6C222.703 308.8 216.37 309.4 209.303 309.4ZM282.389 307L333.989 169.6H376.989L428.589 307H390.389L382.189 283.2H327.389L319.189 307H282.389ZM335.989 256.4H373.389L363.589 227.4C363.056 225.933 362.389 224.133 361.589 222C360.922 219.733 360.189 217.4 359.389 215C358.722 212.467 358.056 209.933 357.389 207.4C356.722 204.867 356.056 202.667 355.389 200.8H353.989C353.456 203.333 352.656 206.2 351.589 209.4C350.656 212.6 349.656 215.8 348.589 219C347.656 222.2 346.789 225 345.989 227.4L335.989 256.4ZM449.002 307V199H404.402V169.6H529.402V199H484.802V307H449.002ZM505.756 307L557.356 169.6H600.356L651.956 307H613.756L605.556 283.2H550.756L542.556 307H505.756ZM559.356 256.4H596.756L586.956 227.4C586.423 225.933 585.756 224.133 584.956 222C584.29 219.733 583.556 217.4 582.756 215C582.09 212.467 581.423 209.933 580.756 207.4C580.09 204.867 579.423 202.667 578.756 200.8H577.356C576.823 203.333 576.023 206.2 574.956 209.4C574.023 212.6 573.023 215.8 571.956 219C571.023 222.2 570.156 225 569.356 227.4L559.356 256.4Z" fill="black"/>
<path d="M704.31 152.43V159.47C702.623 159.617 701.083 160.277 699.69 161.45C698.37 162.623 697.307 164.127 696.5 165.96C695.767 167.72 695.4 169.663 695.4 171.79H703.87V188.73H686.38V173.66C686.38 169.04 687.223 165.227 688.91 162.22C690.597 159.213 692.797 156.903 695.51 155.29C698.223 153.677 701.157 152.723 704.31 152.43ZM735.803 229.32C731.989 229.32 728.396 228.917 725.023 228.11C721.723 227.303 718.789 226.13 716.223 224.59C713.729 223.05 711.749 221.143 710.283 218.87C708.889 216.597 708.193 213.957 708.193 210.95C708.193 210.657 708.193 210.4 708.193 210.18C708.193 209.887 708.229 209.63 708.303 209.41H725.353C725.353 209.557 725.353 209.74 725.353 209.96C725.353 210.107 725.353 210.253 725.353 210.4C725.426 212.013 725.939 213.37 726.893 214.47C727.919 215.497 729.239 216.267 730.853 216.78C732.466 217.22 734.226 217.44 736.133 217.44C737.526 217.44 738.993 217.293 740.533 217C742.146 216.707 743.503 216.193 744.603 215.46C745.703 214.727 746.253 213.663 746.253 212.27C746.253 210.73 745.556 209.557 744.163 208.75C742.843 207.943 741.046 207.283 738.773 206.77C736.573 206.183 734.189 205.633 731.623 205.12C729.056 204.533 726.453 203.873 723.813 203.14C721.246 202.407 718.863 201.417 716.663 200.17C714.536 198.85 712.813 197.163 711.493 195.11C710.173 193.057 709.513 190.453 709.513 187.3C709.513 183.927 710.209 181.067 711.603 178.72C713.069 176.3 715.049 174.357 717.543 172.89C720.036 171.423 722.896 170.36 726.123 169.7C729.423 169.04 732.906 168.71 736.573 168.71C739.946 168.71 743.136 169.04 746.143 169.7C749.223 170.36 751.973 171.387 754.393 172.78C756.886 174.1 758.829 175.823 760.223 177.95C761.616 180.003 762.313 182.423 762.313 185.21C762.313 185.577 762.276 185.98 762.203 186.42C762.203 186.787 762.203 187.043 762.203 187.19H745.263V186.31C745.263 185.063 744.859 184.037 744.053 183.23C743.246 182.423 742.146 181.8 740.753 181.36C739.359 180.847 737.819 180.59 736.133 180.59C735.033 180.59 733.933 180.7 732.833 180.92C731.806 181.067 730.853 181.323 729.973 181.69C729.093 181.983 728.359 182.423 727.773 183.01C727.259 183.597 727.003 184.33 727.003 185.21C727.003 186.31 727.479 187.227 728.433 187.96C729.386 188.62 730.669 189.17 732.283 189.61C733.969 190.05 735.803 190.527 737.783 191.04C740.496 191.627 743.356 192.25 746.363 192.91C749.369 193.497 752.193 194.377 754.833 195.55C757.546 196.65 759.709 198.337 761.323 200.61C763.009 202.81 763.853 205.853 763.853 209.74C763.853 213.407 763.119 216.523 761.653 219.09C760.186 221.583 758.169 223.6 755.603 225.14C753.036 226.607 750.066 227.67 746.693 228.33C743.319 228.99 739.689 229.32 735.803 229.32ZM688.25 305V229.43H729.83C734.963 229.43 739.327 230.493 742.92 232.62C746.587 234.673 749.373 237.57 751.28 241.31C753.26 244.977 754.25 249.303 754.25 254.29C754.25 259.423 753.223 263.86 751.17 267.6C749.19 271.34 746.33 274.273 742.59 276.4C738.923 278.453 734.523 279.48 729.39 279.48H707.94V305H688.25ZM707.94 264.3H724.77C727.85 264.3 730.197 263.457 731.81 261.77C733.423 260.01 734.23 257.59 734.23 254.51C734.23 252.31 733.863 250.513 733.13 249.12C732.47 247.727 731.443 246.663 730.05 245.93C728.657 245.123 726.897 244.72 724.77 244.72H707.94V264.3ZM783.358 306.32C776.905 306.32 771.368 305.22 766.748 303.02C762.201 300.82 758.681 297.483 756.188 293.01C753.768 288.463 752.558 282.78 752.558 275.96C752.558 269.14 753.768 263.493 756.188 259.02C758.681 254.547 762.201 251.21 766.748 249.01C771.368 246.81 776.905 245.71 783.358 245.71C789.885 245.71 795.421 246.81 799.968 249.01C804.588 251.21 808.108 254.547 810.528 259.02C813.021 263.493 814.268 269.14 814.268 275.96C814.268 282.78 813.021 288.463 810.528 293.01C808.108 297.483 804.588 300.82 799.968 303.02C795.421 305.22 789.885 306.32 783.358 306.32ZM783.358 293.23C786.365 293.23 788.785 292.643 790.618 291.47C792.525 290.297 793.881 288.61 794.688 286.41C795.568 284.137 796.008 281.35 796.008 278.05V273.98C796.008 270.68 795.568 267.893 794.688 265.62C793.881 263.347 792.525 261.66 790.618 260.56C788.785 259.387 786.365 258.8 783.358 258.8C780.425 258.8 778.005 259.387 776.098 260.56C774.265 261.66 772.908 263.347 772.028 265.62C771.221 267.893 770.818 270.68 770.818 273.98V278.05C770.818 281.35 771.221 284.137 772.028 286.41C772.908 288.61 774.265 290.297 776.098 291.47C778.005 292.643 780.425 293.23 783.358 293.23ZM818.532 305V247.03H833.382L834.702 255.94H835.472C836.352 253.96 837.415 252.2 838.662 250.66C839.982 249.047 841.559 247.8 843.392 246.92C845.299 246.04 847.389 245.6 849.662 245.6C850.982 245.6 852.192 245.747 853.292 246.04C854.392 246.26 855.199 246.517 855.712 246.81V262.54H849.992C847.719 262.54 845.702 262.87 843.942 263.53C842.255 264.117 840.862 265.07 839.762 266.39C838.662 267.637 837.855 269.177 837.342 271.01C836.829 272.843 836.572 274.97 836.572 277.39V305H818.532ZM877.077 306.32C873.337 306.32 870.147 305.77 867.507 304.67C864.94 303.497 862.997 301.773 861.677 299.5C860.43 297.227 859.807 294.477 859.807 291.25V260.12H852.217V247.03H860.357L864.097 230.09H877.737V247.03H889.067V260.12H877.737V286.85C877.737 288.903 878.14 290.48 878.947 291.58C879.754 292.68 881.22 293.23 883.347 293.23H889.067V304.45C888.114 304.743 886.904 305.037 885.437 305.33C884.044 305.697 882.614 305.953 881.147 306.1C879.68 306.247 878.324 306.32 877.077 306.32ZM895.091 305V260.12H886.841V247.03H895.091V242.3C895.091 238.267 895.751 234.93 897.071 232.29C898.465 229.577 900.518 227.56 903.231 226.24C905.945 224.92 909.281 224.26 913.241 224.26C914.341 224.26 915.551 224.333 916.871 224.48C918.191 224.627 919.475 224.847 920.721 225.14C922.041 225.433 923.105 225.727 923.911 226.02V237.35H918.631C916.578 237.35 915.111 237.79 914.231 238.67C913.425 239.55 913.021 240.907 913.021 242.74V247.03H923.911V260.12H913.021V305H895.091ZM952.036 306.32C945.583 306.32 940.046 305.22 935.426 303.02C930.879 300.82 927.359 297.483 924.866 293.01C922.446 288.463 921.236 282.78 921.236 275.96C921.236 269.14 922.446 263.493 924.866 259.02C927.359 254.547 930.879 251.21 935.426 249.01C940.046 246.81 945.583 245.71 952.036 245.71C958.563 245.71 964.099 246.81 968.646 249.01C973.266 251.21 976.786 254.547 979.206 259.02C981.699 263.493 982.946 269.14 982.946 275.96C982.946 282.78 981.699 288.463 979.206 293.01C976.786 297.483 973.266 300.82 968.646 303.02C964.099 305.22 958.563 306.32 952.036 306.32ZM952.036 293.23C955.043 293.23 957.463 292.643 959.296 291.47C961.203 290.297 962.559 288.61 963.366 286.41C964.246 284.137 964.686 281.35 964.686 278.05V273.98C964.686 270.68 964.246 267.893 963.366 265.62C962.559 263.347 961.203 261.66 959.296 260.56C957.463 259.387 955.043 258.8 952.036 258.8C949.103 258.8 946.683 259.387 944.776 260.56C942.943 261.66 941.586 263.347 940.706 265.62C939.899 267.893 939.496 270.68 939.496 273.98V278.05C939.496 281.35 939.899 284.137 940.706 286.41C941.586 288.61 942.943 290.297 944.776 291.47C946.683 292.643 949.103 293.23 952.036 293.23ZM987.21 305V225.36H1005.25V305H987.21ZM1012.3 239.22V225.36H1030.34V239.22H1012.3ZM1012.3 305V247.03H1030.34V305H1012.3ZM1065.44 306.32C1058.99 306.32 1053.45 305.22 1048.83 303.02C1044.28 300.82 1040.76 297.483 1038.27 293.01C1035.85 288.463 1034.64 282.78 1034.64 275.96C1034.64 269.14 1035.85 263.493 1038.27 259.02C1040.76 254.547 1044.28 251.21 1048.83 249.01C1053.45 246.81 1058.99 245.71 1065.44 245.71C1071.97 245.71 1077.5 246.81 1082.05 249.01C1086.67 251.21 1090.19 254.547 1092.61 259.02C1095.1 263.493 1096.35 269.14 1096.35 275.96C1096.35 282.78 1095.1 288.463 1092.61 293.01C1090.19 297.483 1086.67 300.82 1082.05 303.02C1077.5 305.22 1071.97 306.32 1065.44 306.32ZM1065.44 293.23C1068.45 293.23 1070.87 292.643 1072.7 291.47C1074.61 290.297 1075.96 288.61 1076.77 286.41C1077.65 284.137 1078.09 281.35 1078.09 278.05V273.98C1078.09 270.68 1077.65 267.893 1076.77 265.62C1075.96 263.347 1074.61 261.66 1072.7 260.56C1070.87 259.387 1068.45 258.8 1065.44 258.8C1062.51 258.8 1060.09 259.387 1058.18 260.56C1056.35 261.66 1054.99 263.347 1054.11 265.62C1053.3 267.893 1052.9 270.68 1052.9 273.98V278.05C1052.9 281.35 1053.3 284.137 1054.11 286.41C1054.99 288.61 1056.35 290.297 1058.18 291.47C1060.09 292.643 1062.51 293.23 1065.44 293.23Z" fill="black"/>
</svg>
